<svg aria-hidden="true" style="position: absolute; width: 0; height: 0; overflow: hidden;" version="1.1" xmlns="http://www.w3.org/2000/svg" xmlns:xlink="http://www.w3.org/1999/xlink">
<defs>
<symbol id="icon-facebook" viewBox="0 0 32 32">
<path  d="M21.329 5.313h2.921v-5.088c-0.504-0.069-2.237-0.225-4.256-0.225-4.212 0-7.097 2.649-7.097 7.519v4.481h-4.648v5.688h4.648v14.312h5.699v-14.311h4.46l0.708-5.688h-5.169v-3.919c0.001-1.644 0.444-2.769 2.735-2.769z"></path>
</symbol>
<symbol id="icon-instagram" viewBox="0 0 32 32">
<path  d="M31.969 9.408c-0.075-1.7-0.35-2.869-0.744-3.882-0.406-1.075-1.031-2.038-1.85-2.838-0.8-0.813-1.769-1.444-2.832-1.844-1.019-0.394-2.182-0.669-3.882-0.744-1.713-0.081-2.257-0.1-6.601-0.1s-4.888 0.019-6.595 0.094c-1.7 0.075-2.869 0.35-3.882 0.744-1.075 0.406-2.038 1.031-2.838 1.85-0.813 0.8-1.444 1.769-1.844 2.832-0.394 1.019-0.669 2.182-0.744 3.882-0.081 1.713-0.1 2.257-0.1 6.601s0.019 4.888 0.094 6.595c0.075 1.7 0.35 2.869 0.744 3.882 0.406 1.075 1.038 2.038 1.85 2.838 0.8 0.813 1.769 1.444 2.832 1.844 1.019 0.394 2.182 0.669 3.882 0.744 1.706 0.075 2.25 0.094 6.595 0.094s4.888-0.019 6.595-0.094c1.7-0.075 2.869-0.35 3.882-0.744 2.151-0.831 3.851-2.532 4.682-4.682 0.394-1.019 0.669-2.182 0.744-3.882 0.075-1.707 0.094-2.25 0.094-6.595s-0.006-4.888-0.081-6.595zM29.087 22.473c-0.069 1.563-0.331 2.407-0.55 2.969-0.538 1.394-1.644 2.5-3.038 3.038-0.563 0.219-1.413 0.481-2.969 0.55-1.688 0.075-2.194 0.094-6.464 0.094s-4.782-0.019-6.464-0.094c-1.563-0.069-2.407-0.331-2.969-0.55-0.694-0.256-1.325-0.663-1.838-1.194-0.531-0.519-0.938-1.144-1.194-1.838-0.219-0.563-0.481-1.413-0.55-2.969-0.075-1.688-0.094-2.194-0.094-6.464s0.019-4.782 0.094-6.464c0.069-1.563 0.331-2.407 0.55-2.969 0.256-0.694 0.663-1.325 1.2-1.838 0.519-0.531 1.144-0.938 1.838-1.194 0.563-0.219 1.413-0.481 2.969-0.55 1.688-0.075 2.194-0.094 6.464-0.094 4.276 0 4.782 0.019 6.464 0.094 1.563 0.069 2.407 0.331 2.969 0.55 0.694 0.256 1.325 0.662 1.838 1.194 0.531 0.519 0.938 1.144 1.194 1.838 0.219 0.563 0.481 1.413 0.55 2.969 0.075 1.688 0.094 2.194 0.094 6.464s-0.019 4.77-0.094 6.458z"></path>
<path  d="M16.059 7.783c-4.538 0-8.22 3.682-8.22 8.22s3.682 8.22 8.22 8.22c4.538 0 8.22-3.682 8.22-8.22s-3.682-8.22-8.22-8.22zM16.059 21.335c-2.944 0-5.332-2.388-5.332-5.332s2.388-5.332 5.332-5.332c2.944 0 5.332 2.388 5.332 5.332s-2.388 5.332-5.332 5.332z"></path>
<path  d="M26.524 7.458c0 1.060-0.859 1.919-1.919 1.919s-1.919-0.859-1.919-1.919c0-1.060 0.859-1.919 1.919-1.919s1.919 0.859 1.919 1.919z"></path>
</symbol>
<symbol id="icon-linkedin" viewBox="0 0 32 32">
<path  d="M31.992 32v-0.001h0.008v-11.736c0-5.741-1.236-10.164-7.948-10.164-3.227 0-5.392 1.771-6.276 3.449h-0.093v-2.913h-6.364v21.364h6.627v-10.579c0-2.785 0.528-5.479 3.977-5.479 3.399 0 3.449 3.179 3.449 5.657v10.401h6.62z"></path>
<path  d="M0.528 10.636h6.635v21.364h-6.635v-21.364z"></path>
<path  d="M3.843-0c-2.121 0-3.843 1.721-3.843 3.843s1.721 3.879 3.843 3.879c2.121 0 3.843-1.757 3.843-3.879-0.001-2.121-1.723-3.843-3.843-3.843v0z"></path>
</symbol>
<symbol id="icon-twitter" viewBox="0 0 32 32">
<path  d="M32 6.078c-1.19 0.522-2.458 0.868-3.78 1.036 1.36-0.812 2.398-2.088 2.886-3.626-1.268 0.756-2.668 1.29-4.16 1.588-1.204-1.282-2.92-2.076-4.792-2.076-3.632 0-6.556 2.948-6.556 6.562 0 0.52 0.044 1.020 0.152 1.496-5.454-0.266-10.28-2.88-13.522-6.862-0.566 0.982-0.898 2.106-0.898 3.316 0 2.272 1.17 4.286 2.914 5.452-1.054-0.020-2.088-0.326-2.964-0.808 0 0.020 0 0.046 0 0.072 0 3.188 2.274 5.836 5.256 6.446-0.534 0.146-1.116 0.216-1.72 0.216-0.42 0-0.844-0.024-1.242-0.112 0.85 2.598 3.262 4.508 6.13 4.57-2.232 1.746-5.066 2.798-8.134 2.798-0.538 0-1.054-0.024-1.57-0.090 2.906 1.874 6.35 2.944 10.064 2.944 12.072 0 18.672-10 18.672-18.668 0-0.29-0.010-0.57-0.024-0.848 1.302-0.924 2.396-2.078 3.288-3.406z"></path>
</symbol>
<symbol id="icon-Ellipse" viewBox="0 0 32 32">
<path d="M32 16c0 4.418-1.791 8.418-4.686 11.314s-6.895 4.686-11.314 4.686c-4.418 0-8.418-1.791-11.314-4.686s-4.686-6.895-4.686-11.314c0-4.418 1.791-8.418 4.686-11.314s6.895-4.686 11.314-4.686c4.418 0 8.418 1.791 11.314 4.686s4.686 6.895 4.686 11.314z"></path>
</symbol>
<symbol id="icon-facebook" viewBox="0 0 32 32">
<path fill="#4d5ae5" style="fill: var(--color1, #4d5ae5)" d="M32 16c0 4.418-1.791 8.418-4.686 11.314s-6.895 4.686-11.314 4.686c-4.418 0-8.418-1.791-11.314-4.686s-4.686-6.895-4.686-11.314c0-4.418 1.791-8.418 4.686-11.314s6.895-4.686 11.314-4.686c4.418 0 8.418 1.791 11.314 4.686s4.686 6.895 4.686 11.314z"></path>
<path fill="#f4f4fd" style="fill: var(--color2, #f4f4fd)" d="M19.198 9.588h1.753v-3.053c-0.302-0.042-1.342-0.135-2.554-0.135-2.527 0-4.258 1.59-4.258 4.511v2.689h-2.789v3.413h2.789v8.587h3.419v-8.586h2.676l0.425-3.413h-3.102v-2.351c0.001-0.986 0.266-1.662 1.641-1.662z"></path>
</symbol>
<symbol id="icon-instagram" viewBox="0 0 32 32">
<path fill="#4d5ae5" style="fill: var(--color1, #4d5ae5)" d="M32 16c0 4.418-1.791 8.418-4.686 11.314s-6.895 4.686-11.314 4.686c-4.418 0-8.418-1.791-11.314-4.686s-4.686-6.895-4.686-11.314c0-4.418 1.791-8.418 4.686-11.314s6.895-4.686 11.314-4.686c4.418 0 8.418 1.791 11.314 4.686s4.686 6.895 4.686 11.314z"></path>
<path fill="#f4f4fd" style="fill: var(--color2, #f4f4fd)" d="M25.581 12.045c-0.045-1.020-0.21-1.722-0.446-2.329-0.244-0.645-0.619-1.223-1.11-1.703-0.48-0.488-1.061-0.866-1.699-1.106-0.611-0.236-1.309-0.401-2.329-0.446-1.028-0.049-1.354-0.060-3.961-0.060s-2.933 0.011-3.957 0.056c-1.020 0.045-1.722 0.21-2.329 0.446-0.645 0.244-1.223 0.619-1.703 1.11-0.488 0.48-0.866 1.062-1.106 1.699-0.236 0.611-0.401 1.309-0.446 2.329-0.049 1.028-0.060 1.354-0.060 3.961s0.011 2.933 0.056 3.957c0.045 1.020 0.21 1.722 0.446 2.329 0.244 0.645 0.623 1.223 1.11 1.703 0.48 0.488 1.061 0.866 1.699 1.106 0.611 0.236 1.309 0.401 2.329 0.446 1.024 0.045 1.35 0.056 3.957 0.056s2.933-0.011 3.957-0.056c1.020-0.045 1.722-0.21 2.329-0.446 1.29-0.499 2.31-1.519 2.809-2.809 0.236-0.611 0.401-1.309 0.446-2.329 0.045-1.024 0.056-1.35 0.056-3.957s-0.004-2.933-0.049-3.957zM23.852 19.884c-0.041 0.938-0.199 1.444-0.33 1.782-0.323 0.836-0.986 1.5-1.823 1.823-0.338 0.131-0.848 0.289-1.782 0.33-1.013 0.045-1.316 0.056-3.878 0.056s-2.869-0.011-3.878-0.056c-0.938-0.041-1.444-0.199-1.782-0.33-0.416-0.154-0.795-0.398-1.103-0.716-0.319-0.311-0.563-0.686-0.716-1.103-0.131-0.338-0.289-0.848-0.33-1.782-0.045-1.013-0.056-1.317-0.056-3.878s0.011-2.869 0.056-3.878c0.041-0.938 0.199-1.444 0.33-1.782 0.154-0.416 0.398-0.795 0.72-1.103 0.311-0.319 0.686-0.563 1.103-0.716 0.338-0.131 0.848-0.289 1.782-0.33 1.013-0.045 1.317-0.056 3.878-0.056 2.566 0 2.869 0.011 3.878 0.056 0.938 0.041 1.444 0.199 1.782 0.33 0.416 0.154 0.795 0.397 1.103 0.716 0.319 0.311 0.563 0.686 0.716 1.103 0.131 0.338 0.289 0.848 0.33 1.782 0.045 1.013 0.056 1.316 0.056 3.878s-0.011 2.862-0.056 3.875z"></path>
<path fill="#f4f4fd" style="fill: var(--color2, #f4f4fd)" d="M16.036 11.070c-2.723 0-4.932 2.209-4.932 4.932s2.209 4.932 4.932 4.932c2.723 0 4.932-2.209 4.932-4.932s-2.209-4.932-4.932-4.932zM16.036 19.201c-1.766 0-3.199-1.433-3.199-3.199s1.433-3.199 3.199-3.199c1.767 0 3.199 1.433 3.199 3.199s-1.433 3.199-3.199 3.199z"></path>
<path fill="#f4f4fd" style="fill: var(--color2, #f4f4fd)" d="M22.314 10.875c0 0.636-0.516 1.151-1.152 1.151s-1.151-0.516-1.151-1.151c0-0.636 0.516-1.151 1.151-1.151s1.152 0.515 1.152 1.151z"></path>
</symbol>
<symbol id="icon-linkedin" viewBox="0 0 32 32">
<path fill="#4d5ae5" style="fill: var(--color1, #4d5ae5)" d="M32 16c0 4.418-1.791 8.418-4.686 11.314s-6.895 4.686-11.314 4.686c-4.418 0-8.418-1.791-11.314-4.686s-4.686-6.895-4.686-11.314c0-4.418 1.791-8.418 4.686-11.314s6.895-4.686 11.314-4.686c4.418 0 8.418 1.791 11.314 4.686s4.686 6.895 4.686 11.314z"></path>
<path fill="#f4f4fd" style="fill: var(--color2, #f4f4fd)" d="M25.595 25.6v-0.001h0.005v-7.042c0-3.445-0.742-6.098-4.769-6.098-1.936 0-3.235 1.062-3.766 2.070h-0.056v-1.748h-3.818v12.818h3.976v-6.347c0-1.671 0.317-3.287 2.386-3.287 2.039 0 2.070 1.907 2.070 3.394v6.241h3.972z"></path>
<path fill="#f4f4fd" style="fill: var(--color2, #f4f4fd)" d="M6.717 12.782h3.981v12.818h-3.981v-12.818z"></path>
<path fill="#f4f4fd" style="fill: var(--color2, #f4f4fd)" d="M8.706 6.4c-1.273 0-2.306 1.033-2.306 2.306s1.033 2.327 2.306 2.327c1.273 0 2.306-1.054 2.306-2.327s-1.034-2.306-2.306-2.306v0z"></path>
</symbol>
<symbol id="icon-twitter" viewBox="0 0 32 32">
<path fill="#4d5ae5" style="fill: var(--color1, #4d5ae5)" d="M32 16c0 4.418-1.791 8.418-4.686 11.314s-6.895 4.686-11.314 4.686c-4.418 0-8.418-1.791-11.314-4.686s-4.686-6.895-4.686-11.314c0-4.418 1.791-8.418 4.686-11.314s6.895-4.686 11.314-4.686c4.418 0 8.418 1.791 11.314 4.686s4.686 6.895 4.686 11.314z"></path>
<path fill="#f4f4fd" style="fill: var(--color2, #f4f4fd)" d="M25.6 10.047c-0.714 0.313-1.475 0.521-2.268 0.622 0.816-0.487 1.439-1.253 1.732-2.176-0.761 0.454-1.601 0.774-2.496 0.953-0.722-0.769-1.752-1.246-2.875-1.246-2.179 0-3.934 1.769-3.934 3.937 0 0.312 0.026 0.612 0.091 0.898-3.272-0.16-6.168-1.728-8.113-4.117-0.34 0.589-0.539 1.264-0.539 1.99 0 1.363 0.702 2.572 1.748 3.271-0.632-0.012-1.253-0.196-1.778-0.485 0 0.012 0 0.028 0 0.043 0 1.913 1.364 3.502 3.154 3.868-0.32 0.088-0.67 0.13-1.032 0.13-0.252 0-0.506-0.014-0.745-0.067 0.51 1.559 1.957 2.705 3.678 2.742-1.339 1.048-3.040 1.679-4.88 1.679-0.323 0-0.632-0.014-0.942-0.054 1.744 1.124 3.81 1.766 6.038 1.766 7.243 0 11.203-6 11.203-11.201 0-0.174-0.006-0.342-0.014-0.509 0.781-0.554 1.438-1.247 1.973-2.044z"></path>
</symbol>
</defs>
</svg>
